<svg width="40" height="40" viewBox="0 0 40 40" fill="none" xmlns="http://www.w3.org/2000/svg">
<path d="M5.99419 6.99194C5.99419 6.72673 6.09954 6.47237 6.28708 6.28484C6.47462 6.0973 6.72897 5.99194 6.99419 5.99194H7.87019C9.32419 5.99194 10.1602 6.93794 10.6442 7.88194C10.9742 8.52794 11.2122 9.31594 11.4102 9.99994H32.0002C32.3092 10 32.614 10.0717 32.8907 10.2094C33.1674 10.3471 33.4084 10.5471 33.5948 10.7935C33.7812 11.04 33.9079 11.3263 33.9651 11.63C34.0222 11.9337 34.0082 12.2466 33.9242 12.5439L30.9322 23.0939C30.6942 23.931 30.1897 24.6675 29.4953 25.192C28.8009 25.7164 27.9544 26.0001 27.0842 25.9999H16.9262C16.0487 26.0002 15.1955 25.712 14.498 25.1797C13.8005 24.6473 13.2974 23.9004 13.0662 23.0539L11.7822 18.3439C11.7748 18.3228 11.7682 18.3015 11.7622 18.2799L9.70019 11.2859L9.50019 10.6119C9.30019 9.91994 9.12419 9.30794 8.86019 8.79394C8.54219 8.17394 8.25019 7.99394 7.86819 7.99394H6.99219C6.72697 7.99394 6.47262 7.88859 6.28508 7.70105C6.09754 7.51351 5.99219 7.25916 5.99219 6.99394M13.6902 17.7399L14.9962 22.5319C15.112 22.955 15.3636 23.3282 15.7124 23.5942C16.0611 23.8602 16.4876 24.0042 16.9262 24.0039H27.0862C27.5211 24.0035 27.944 23.8613 28.2908 23.599C28.6376 23.3366 28.8895 22.9683 29.0082 22.5499L32.0002 11.9999H12.0002L13.6902 17.7399ZM20.0002 30.9979C20.0002 31.7936 19.6841 32.5567 19.1215 33.1193C18.5589 33.6819 17.7958 33.9979 17.0002 33.9979C16.2045 33.9979 15.4415 33.6819 14.8789 33.1193C14.3163 32.5567 14.0002 31.7936 14.0002 30.9979C14.0002 30.2023 14.3163 29.4392 14.8789 28.8766C15.4415 28.314 16.2045 27.9979 17.0002 27.9979C17.7958 27.9979 18.5589 28.314 19.1215 28.8766C19.6841 29.4392 20.0002 30.2023 20.0002 30.9979ZM18.0002 30.9979C18.0002 30.7327 17.8948 30.4784 17.7073 30.2908C17.5198 30.1033 17.2654 29.9979 17.0002 29.9979C16.735 29.9979 16.4806 30.1033 16.2931 30.2908C16.1055 30.4784 16.0002 30.7327 16.0002 30.9979C16.0002 31.2632 16.1055 31.5175 16.2931 31.705C16.4806 31.8926 16.735 31.9979 17.0002 31.9979C17.2654 31.9979 17.5198 31.8926 17.7073 31.705C17.8948 31.5175 18.0002 31.2632 18.0002 30.9979ZM30.0002 30.9979C30.0002 31.7936 29.6841 32.5567 29.1215 33.1193C28.5589 33.6819 27.7958 33.9979 27.0002 33.9979C26.2045 33.9979 25.4415 33.6819 24.8789 33.1193C24.3163 32.5567 24.0002 31.7936 24.0002 30.9979C24.0002 30.2023 24.3163 29.4392 24.8789 28.8766C25.4415 28.314 26.2045 27.9979 27.0002 27.9979C27.7958 27.9979 28.5589 28.314 29.1215 28.8766C29.6841 29.4392 30.0002 30.2023 30.0002 30.9979ZM28.0002 30.9979C28.0002 30.7327 27.8948 30.4784 27.7073 30.2908C27.5198 30.1033 27.2654 29.9979 27.0002 29.9979C26.735 29.9979 26.4806 30.1033 26.2931 30.2908C26.1055 30.4784 26.0002 30.7327 26.0002 30.9979C26.0002 31.2632 26.1055 31.5175 26.2931 31.705C26.4806 31.8926 26.735 31.9979 27.0002 31.9979C27.2654 31.9979 27.5198 31.8926 27.7073 31.705C27.8948 31.5175 28.0002 31.2632 28.0002 30.9979Z" fill="white"/>
</svg>
