<svg width="25" height="24" viewBox="0 0 25 24" fill="none" xmlns="http://www.w3.org/2000/svg">
<path d="M15.5008 15.7915L17.0507 14.2409C17.2595 14.0346 17.5236 13.8935 17.8111 13.8345C18.0985 13.7755 18.3968 13.8013 18.6699 13.9086L20.5589 14.6632C20.8349 14.7752 21.0715 14.9665 21.239 15.2129C21.4065 15.4592 21.4973 15.7497 21.5 16.0476V19.5088C21.4984 19.7115 21.4558 19.9117 21.3748 20.0975C21.2938 20.2833 21.1761 20.4507 21.0287 20.5898C20.8813 20.7288 20.7073 20.8366 20.5171 20.9066C20.327 20.9766 20.1247 21.0074 19.9223 20.9971C6.68528 20.1733 4.01434 8.95917 3.50922 4.66733C3.48577 4.45657 3.50719 4.24323 3.57208 4.04135C3.63696 3.83947 3.74384 3.65362 3.88568 3.49603C4.02752 3.33844 4.20111 3.21268 4.39502 3.12702C4.58894 3.04136 4.79878 2.99775 5.01075 2.99905H8.35289C8.65113 2.99993 8.94228 3.09006 9.1889 3.25783C9.43553 3.4256 9.62634 3.66335 9.73679 3.94049L10.491 5.83028C10.6019 6.10238 10.6302 6.40113 10.5724 6.68921C10.5145 6.9773 10.3731 7.24195 10.1658 7.45011L8.61583 9.00071C8.61583 9.00071 9.50845 15.0439 15.5008 15.7915Z" fill="white"/>
</svg>
